<?xml version="1.0" encoding="utf-8"?>
<!-- Generator: Adobe Illustrator 26.2.1, SVG Export Plug-In . SVG Version: 6.00 Build 0)  -->
<svg version="1.1" id="Capa_1" xmlns="http://www.w3.org/2000/svg" xmlns:xlink="http://www.w3.org/1999/xlink" x="0px" y="0px"
	 viewBox="0 0 688.6 319" style="enable-background:new 0 0 688.6 319;" xml:space="preserve">
<style type="text/css">
	.st0{fill:#383838;}
</style>
<g id="XfKeWO_00000027579817799457249200000006351939298130759088_">
	<g>
		<path class="st0" d="M270.1,164.5c-0.4-3.3-0.7-6.7-1.4-9.9c-0.2-0.9-1.6-1.6-2.5-2.4c-0.8-0.7-2.1-1.2-2.2-2
			c-0.7-4.3-3.7-6.3-7.1-8.5c-2.3-1.5-4.2-4.8-4.8-7.6c-1-5.1-5.2-9.7-2.2-15.5c0.6-1.1-0.3-3-0.5-5c-3.3,2.9-5.8,5.1-8.3,7.3
			c-0.6-0.1-1.2-0.2-1.8-0.2c-0.1-3.9-0.2-7.8-0.4-11.7c-0.1-1.3-0.3-2.8-1.1-3.7c-1.8-2.3-4-4.4-6.4-7c-0.1,1.5-0.2,2.6-0.2,3.6
			c-0.4,0-0.7,0-1.1,0c-0.2-2.1-0.4-4.1-0.7-6.4c5.4,1.6,5.6,1.9,11.9,18.7c2.2-0.9,4.4-2.6,6.7-2.6c2.4-0.1,4.8,1.4,7.6,2.3
			c0.1-0.8,0.6-1.9,0.5-3c-0.7-4.7-0.9-9.1,2.4-13.3c2.1-2.7,1.5-6-1.9-8.2c-1.1-0.7-1.9-2.1-2.9-3.1c-4.2-4.3-4.2-5,0.9-9.1
			c-1.3-0.1-2.3-0.3-3.3-0.2c-1,0.1-1.9,0.5-3.3,0.9c4-4.9,9.1-5.4,14.4-1c-2.9,1.7-5.4,3.2-8.2,4.8c0.4,0.7,0.5,1.6,1,1.9
			c7.8,3.4,8.2,11,10.7,17.7c1.5,3.9,6.1,6.7,9.6,9.7c0.4,0.4,2-0.3,2.9-0.6c3.2-1.2,6.3-2.4,9.5-3.6c0.3,0.6,0.7,1.2,1,1.7
			c-1.4,1.2-2.7,2.3-5.4,4.6c2.9,0.5,5.1,1.5,6.6,0.9c3.8-1.6,6.7-0.4,9,2.3c2.4,3,4.3,6.5,5.5,10.4c-1.7-1.8-3.4-3.6-5.1-5.4
			c-4.4,1.8-3.4,4.7-1.8,7.7l-0.3,0.4c-1.3-1.3-3.3-2.3-3.9-3.9c-0.8-2.3,0.1-6.1-3.9-5.4c-2,0.4-3.6,2.9-5.6,4.6
			c-0.6-2-1.4-4.8-2.2-7.9c-1.8,0.2-3.7,0.4-5.6,0.6c-0.1,1.4-0.2,2.6-0.2,3.1c-2.9-2.1-6.1-4.4-9.2-6.6c-0.5,0.5-1,1-1.5,1.5
			c2.6,5.9-2.7,14,7.5,18.7c-3.5,0.2-5.2,0.3-6,0.3c1.3,1.6,2.8,3.4,4.3,5.1c3.5,4.1,7.7,7.8,10.2,12.5c3.7,7,6.8,14.6,9,22.2
			c1.7,5.8,1.1,12.2,2.2,18.2c0.7,3.8,2.5,7.5,4.1,11.1c0.4,1,2.4,2,3.4,1.7c1.9-0.4,3.7-1.7,5.5-2.6c-1.3-1.5-2.2-3.5-3.8-4.2
			c-3.3-1.6-4.4-3.6-3.3-7.2c2.3-7.9,4.3-15.9,6.5-23.9c-5.1-1.4-5.1-1.4-6.8,8.4c-0.8-4.6-1.3-8.4-2.2-12.1c-0.8-3-2.1-5.8-3.4-9.6
			c1.8,1.7,3.4,3.3,5.2,4.8c1.1,1,2.6,2.9,3.5,2.7c2-0.4,4.3-1.5,5.5-3.1c6.2-8.1,4.2-18.2,5.8-27.4c1.2-6.6,1.5-13.4,1.8-20.2
			c0.2-5.6,0.2-11.3-0.6-16.8c-0.8-5.9-6.7-8-11.3-4.3c-1.4-4.5,0.2-7,4.8-8.1c3.8-0.9,6.4-2.7,3.1-6.9c-0.2-0.3-0.5-0.6-0.5-0.9
			c0.1-7.4-3.3-5-7.1-1.7c-0.4-0.3-0.8-0.6-1.3-0.8c0.3-6.1,0.6-12.2,0.9-18.4c0.5,0,1,0,1.5,0c-0.5,4.6-0.9,9.2-1.5,14.8
			c6-2.7,8.7-0.9,10.4,4.3c1,3,3.8,5.4,6.3,8.7c-2.5,1.3-4.9,2.4-8,4c5,2.1,12,1,13.3,8.8c-1.5-0.9-2.6-1.7-4-2.5
			c0.8,9.9,10.5,16,10.5,24.9c3.1,5.8,6.1,10.8,8.5,16.1c3.5,7.8,6.6,15.7,9.9,23.6c0.4,1,1,2,0.9,3c-0.7,6.8,3,9.8,9.5,10.9
			c-0.4-7.6-0.8-15.3-1.4-23c-0.1-1.1-1.4-2-2.2-3c-0.9,0.8-1.8,1.7-2.9,2.6c-0.6-2.5-1.3-5.4-2-8.3c-0.4,0-0.8,0-1.1,0
			c-0.2,2.1-0.3,4.1-0.6,7.9c-3.1-8-5.6-14.6-8.2-21.2c0.6-0.2,1.2-0.4,1.8-0.5c0.6,2.3,1.1,4.6,1.9,6.9c0.5,1.4,1.1,3.2,2.3,3.8
			c1.2,0.7,3.1,0.2,4.7,0.4c1.5,0.2,3,0.8,4.8,1.4c0.7-4.1,1.5-6.9-1-11c-1.8-3,0.6-8.7,1.7-13.1c1.4-5.9,3.5-11.6,5-17.5
			c0.2-0.9-1.2-3-2.2-3.3c-1-0.3-2.6,0.8-3.7,1.5c-1.6,1.1-3.1,2.4-4.7,3.6l0.1,0.1c0.4-1.8,1.1-3.5,1.1-5.3
			c0.1-5.3,2.5-7.7,7.8-7.8c2.6-0.1,5.2-0.7,9.1-1.2c-2-2.7-3-4-4.4-6c2.5,0,4.8,0,7.9,0c-0.6-2.6-1.4-5-1.5-7.5
			c-0.1-2,0.2-4.7,1.4-5.9c3.8-3.4,8.1-6.2,12.9-9.7c5.1,0.6,5.4,11.4,13.9,7.4c-6.3,4.8-9.2,0.5-11.9-3.4c-2.1,1.3-4,2.5-6,3.7
			c0.1,1.4,0.2,3.2,0.2,3.6c-2.4-0.3-4.8-0.7-7.4-1c0,6.8,0,12.6,0,17.1c-2.9,2.7-5.4,4.9-7.8,7.1c0.5,0.1,1,0.3,1.5,0.4
			c-0.1,2.4-0.2,4.8-0.4,7.2c-0.1,0.9-0.5,1.7-0.5,2.5c0.1,5.2-3.4,8.9-4.9,13.4c-1.1,3.1-1,6.8-1,10.2c0,4.5,0.3,9,0.8,13.5
			c0.4,3.7,1.4,7.3,1.8,10.9c0.4,3,0.5,6.1,0.7,9.1c-0.6,0.1-1.1,0.2-1.7,0.3c2.5,3.8,6.9,7.6,7.1,11.5c0.2,5.1,2.4,7.9,5.2,11.2
			c0.7,0.9-0.4,3.3-0.7,4.9c-1.5-2.9-2.9-5.5-4.2-8.1c-0.7,0.2-1.4,0.4-2.1,0.6c-2.2,10.6,1.5,21,0.6,31.6c0.7,0.1,1.4,0.2,2,0.3
			c1.3-5.5,2.7-10.9,3.9-16c3.1,2.9-2.2,10.8,5.7,12.6c0.3-1.7,1.2-3.4,0.9-5c-1.2-6.8,0-12.9,3.8-18.6c3.9-5.7,0.5-10.2-2.1-15
			c-0.8-1.4-0.5-3.4-1.3-4.9c-0.8-1.7-2.3-4.4-3.4-4.4c-5.7,0.4-6.1-5.2-7.7-7.7c-2.5-4-3.3-10-2.9-14.9c0.9-9.7,1.4-9.6,11.2-10.2
			c-1.3-2-2.5-3.6-3.9-5.9c1.3-1,2.8-2.1,4.2-3.3c1-0.9,2-1.8,3-2.7c-1.1-1.1-2-2.3-3.2-3.2c-2.5-1.9-6.7-2-6.6-6.4
			c1.7,1.1,3.2,2.5,4.9,3.2c8.3,3.6,9,6.7,3.1,12.1c0.6,4.3,1.1,8.2,1.6,11.7c-2.9,0-6.6-0.9-7.3,0.2c-1.4,2.2-2.3,5.8-1.5,8.2
			c1.4,4.9,2.5,10.1,9.3,11.9c2.5,0.7,3.6,6.5,5.3,10c0.7,1.5,1.4,3.1,2.8,6.1c2.9-5.9,5.1-10.5,7.8-16c-2.6-2.2-0.7-4.6,2.8-6.6
			c4.6-2.6,5.8-6,4.6-11.4c-0.7-2.9,0.1-6.3-0.8-9.1c-2.6-7.7-2.4-15,2.8-23c-7.2,0.2-11.8-1.5-14.8-6.9c-0.3,1.4-0.6,2.8-0.9,4.3
			c-0.2,0-0.6,0-0.7-0.1c-1.6-3.1-3-6.3-4.9-9.3c-0.8-1.2-2.7-1.8-4-2.7c0,1.7-0.4,3.6,0.1,5.2c1.9,6,4,11.9,6.1,17.8
			c-0.6,0.2-1.2,0.3-1.8,0.5c-1-3.6-1.9-7.2-3.1-10.8c-1-2.8-2.9-5.3-3.4-8.1c-0.4-2.3,0.6-4.8,0.9-7.3c2.2,1,4.4,2,6.5,3.2
			c1,0.6,1.7,1.9,2.7,2.2c3.3,1.1,6.6,2,9.8,2.9c-1.5-4.8-2.5-10.5-5.3-15.1c-1.6-2.7-6.2-3.6-9.3-5.2c3.1-2.7,9.2-1.1,11.5,3.8
			c1.3,2.7,1.7,5.7,2.5,8.6c2.8,9.4,4.2,9.9,13.9,11.2c6.1,0.8,12.2,2.4,16.8,7.5c3.2,3.5,8.3,5.4,11.1,9.1
			c3.6,4.7,5.7,10.5,8.4,15.8c0.5,1.1,0.8,2.3,1.2,3.7c2.7-0.4,5.1-1.1,7.5-1.1c6.5,0,13,0.9,19.5,0.5c6-0.4,12-1.6,17.8-3.3
			c4.6-1.4,8.9-3.9,13.2-6.1c1.1-0.6,2.4-1.9,2.6-3.1c0.4-3.1,1.9-4.5,4.8-5.5c1.1-0.4,2-2.7,2-4.2c0-4.4,2.1-6,6.3-6
			c6.6-0.1,9.4-2.3,10.5-8.7c0.2-1.5-1.1-3.4-2-4.9c-3.1-4.7-2.4-6.2,2.5-9c1.7-1,2.8-3.7,3.2-5.8c0.2-1.3-1.5-3-2.4-4.5
			c-1.9-3.1-3.8-6.2-5.4-9.4c8.9,5.7,11.7,14.2,9,25.1c-1.4-0.9-2.9-1.8-4.5-2.8c-0.4,0.4-0.8,0.8-1.3,1.1c0.5,1.5,1.1,3,1.5,4.6
			c0.5,2.6,1.6,5.3,1.1,7.7c-1,4.9-2.8,9.6-4.1,13.6c-0.1-0.5-0.6-2.1-1.1-3.9c-8.2-0.9-2.4,6.8-6.1,8.8c-0.5-1.8-1.1-3.8-1.7-6.1
			c-4.7,7.9-9,15.2-13.4,22.5c0.2,0.3,0.4,0.5,0.6,0.8c1-0.6,2.6-1,3-2c1.7-4,4.7-3.7,8-2.6c3.4,1,5.6,0.7,6.7-3.4
			c1.1-4,3.4-4.4,6.4-1.2c2.3,2.4,4,3.5,6-0.3c3.2-5.9,6.6-11.7,10-17.6c0.7,0.4,1.3,0.8,2,1.3c-1.4,2-2.9,4-4.3,6.1
			c-1.7,2.6-3.7,5.1-4.7,8c-2.3,6-3.9,8-9.5,9.8c0,3.2,0,6.6,0,9.9c-0.2,0-0.4,0-0.6,0.1c-0.4-2.3-0.8-4.5-1.2-6.8
			c-0.2,0-0.5-0.1-0.7-0.1c-0.2,1.1-0.5,2.1-1,4.2c-0.9-2.4-1.4-3.8-2.1-5.4c-2.1,0.6-3.9,1.2-6,1.8c0,2.8,0,5.5,0,8.3
			c-0.2,0.1-0.5,0.1-0.7,0.2c-0.8-3-1.7-6-2.5-8.7c-2.4,1.5-4.3,3.4-6.6,4.1c-3.3,1.1-6.5,1.1-3.4,6.1c0.9,1.4-1.5,4.8-2.4,7.3
			c0.3,0.6,0.7,1.1,1,1.7c2.1-0.6,4.1-1.5,6.2-1.6c1.6-0.1,3.6,0.5,4.7,1.6c4.4,4.4,12.8,2.8,14.9-3.2c0.1-0.3,0-0.9,0.2-1
			c9.3-3.6,7.7-13.5,11.7-20.2c4.3-7.2,9-14.3,13.5-21.4c0.1-0.1,0.4-0.3,0.4-0.3c-2.2-7.5,6.9-13.1,3.5-21.1
			c-1.1-2.7-0.1-6.7,0.9-9.7c2-6.1,4.7-12,7.1-17.9c0.3-0.8,0.7-1.9,1.4-2.2c4.8-1.8,4.4-5.3,2.7-9.4c4.9,3.5,4.9,6.2,1.6,10.2
			c-2.1,2.5-3.3,5.9-4.3,9.1c-1.2,3.5-1.6,7.2-2.5,10.8c-0.9,3.6-0.1,5.9,2.3,6c5.1-6.4,10.5-11.5,14-17.7
			c3.8-6.6,9.4-11.1,14.8-16.2c3.5-3.2,4.9-8.6,8.3-12.1c4.6-4.8,10.2-8.7,15.9-13.4c-1.2-1.1-4-2.8-5.3-5.3c-1.3-2.5-1-5.7-1.6-9.5
			c-4.1,3.4-8.4,7.1-13,10.9c-1-0.8-2.2-1.8-3.6-2.8c-1.3,0.8-2.5,1.6-4,2.5c2.1-5.9,4.2-6.8,9.3-6.1c1.9,0.3,4.3-2,6.2-3.5
			c1.2-0.9,1.8-2.7,3-3.7c1.7-1.3,3.6-2.3,5.5-3.4c0.6,2.1,1.9,4.3,1.7,6.3c-0.5,4.6-1.6,8.9,5,10c0.7,0.1,1.1,3.6,1.1,5.6
			c0.1,2.1-0.4,4.2-0.7,7.6c2.2-1.4,3.1-2.1,4.1-2.5c2.8-1.1,4.9-5,9-0.8c1.7,1.8,6.4,0.6,9.7,1.2c2.4,0.4,4.7,1.4,7.1,2.2
			c0,0.7,0.1,1.4,0.1,2c2.3-2.1,4.4-4.4,6.9-6.1c1.7-1.1,4.6-2.1,6-1.3c1.7,0.9,3.6,3.9,3.4,5.7c-0.6,4.6-2.2,9.1-3.7,13.6
			c-1.6,5-3.9,9.7,0.7,14.8c1.1,1.2-1.6,5.9-2.8,9.8c-0.6-5.1-1.6-8.8-1.4-12.4c0.4-4.7,1.7-9.3,2.8-13.9c0.6-2.6,1.9-5,2.3-7.6
			c0.2-1.6-0.3-4.2-1.4-4.9c-1.2-0.8-4-0.5-5.3,0.4c-3.3,2.3-6.1,5.2-9.1,7.9c-5.9-4.3-12-7.1-19.6-3.9c-0.9,6.1-1.9,13.1-3,20
			c-0.4,0-0.8,0-1.3-0.1c0-6,0-12,0-18.1c-9.8,0.7-12,2.7-13.5,11.4c-0.4,2.3-0.9,4.5-1.3,6.8c-0.5,2.2-1,4.4-1.7,7.7
			c0-6.5,0-11.9,0-17.4c-12,3.5-30.7,27.7-29.2,37.1c2.4-3,4.2-5.3,6-7.7c4-5.2,7.1-5.5,11.9-0.9c3.2,3,5.2,0.2,7.2-1.4
			c5.9-4.6,8.3-3.8,9.6,3.6c0.6,3.4,2.2,3.8,4.7,1.9c1.5-1.2,3-2.5,4.1-4c2-2.8,6.8-4.2,9.4-2.3c3.5,2.7,2.4,5.5-0.1,8.1
			c-1.6,1.6-3.8,2.6-5.2,4.3c-1.3,1.5-1.9,3.5-2.8,5.3c1.8,0.2,3.7,0.7,5.5,0.5c1.5-0.1,3.1-1.7,4.4-1.4c1.4,0.3,3.5,1.8,3.7,3
			c0.9,5.1,1.1,10.2,1.3,15.8c-1.1-3.6-2.9-7.1-3.3-10.7c-0.6-5.4-2.5-7.1-7.1-4c-3.1,2.1-5.8,1.5-6.5-0.9c-0.7-2.4,0.7-5.6,1.8-8.2
			c0.5-1.1,3-1.2,4-2.3c1.4-1.4,2.3-3.3,3.3-5.1c0.1-0.1-1.4-1.5-1.8-1.4c-1.7,0.7-3.5,1.4-4.9,2.6c-1.9,1.5-3.4,3.5-5.1,5.2
			c-2.5,2.4-4.7,3.1-7.7,0.1c-1.1-1.1-4.9-1.3-6.3-0.2c-3.8,2.8-7,3.4-11.1,0.6c-4-2.7-7.3-1.6-8.6,1.9c2.9,2.3,5.2,4.3,7.7,6
			c0.9,0.6,2.2,1,3.3,0.9c3.7-0.3,6.8,0.3,8.9,3.8c1.8,3,3.8,5.4,7.8,5.9c1.6,0.2,2.8,2.8,5.2,5.3c-5.7-2.5-10-4.4-14.3-6.3
			c-1.7,4.1-0.8,7.2,3.6,9c2.7,1.2,5.4,2.7,7.9,4.3c1.5,1,2.7,2.6,4.1,3.9c-0.3,0.4-0.6,0.8-0.9,1.2c-3.7-1.3-7.4-2.6-12.5-4.5
			c0.4,1.6,0.4,3.7,1.2,4.1c3.8,2.1,9,2.5,9.5,8.6c0,0.5,3.4,0.9,5.3,1.1c2.4,0.2,4.9,0.2,7.3,0c3-0.2,4.3,1.4,4.1,4.2
			c-0.2,3.1,1.1,4.2,4.1,4.9c7.8,1.7,13.8,5.8,16.9,13.7c0.9,2.4,3.9,4,5.5,6.3c3.2,4.7,6.1,9.6,9.2,14.4c0.7,1.1,1.4,2.9,2.4,3.1
			c6.6,1.4,6.1,6.3,5.5,11.3c-0.5-5.1-3-8.3-7.9-10.1c-1.3-0.5-2.1-2.6-2.9-4.1c-1.3-2.4-2.1-5.1-3.7-7.3c-4.2-5.6-8.6-11.1-13-16.5
			c-0.8-1-2-1.8-4-3.6c-0.3,3.8-0.5,6.5-0.7,9.3c-0.2,0-0.4,0-0.6,0.1c-0.6-3.3-1.2-6.6-1.8-9.9c-0.5,0-1,0-1.5,0
			c-0.4,3.7-0.8,7.4-1.1,11.1c-0.5-2.7-1-5.4-1.5-8c0-0.2,0-0.4-0.1-0.5c-3.8-3.6-9.1-6-9.1-12.4c-1.2,0.1-2.4,0.2-3.6,0.2
			c-4.3-0.2-8.7-0.4-13-0.6c-0.3,0-0.9-0.1-1-0.3c-1.3-5.9-8.7-5.8-10.8-10.7c-1.4-3.2-3.6-2.3-6.1-2c-3.1,0.4-3.8,1.9-3.8,4.6
			c0,1.8-0.2,3.7-1,5.5c-0.2-2.8-0.3-5.6-0.5-8.3c-0.3,0-0.6-0.1-0.9-0.1c-0.6,4.5-1.1,8.9-1.7,13.4c-0.4,0-0.9-0.1-1.3-0.1
			c0-4.8,0-9.6,0-14.5c-6.8,0.6-12.9,1.2-19.2,1.8c0,5.6,0,11.2,0,17.9c-1-5.1-1.7-9.2-2.6-13.1c-0.8-4-3.9-5.1-7.4-5.4
			c-2.9-0.2-5.2,0.5-5.1,4.3c0.1,10.2,0,20.3,0,31c-0.7-9.2-1.4-18-2.1-26.8c-0.7,0-1.3,0-2,0c-4.6,5.4-5.5,11.7-4.8,18.8
			c-0.3-0.8-0.6-1.5-0.9-2.3c-0.5,0-1.1,0-1.6,0.1c0.6,10.8,1.1,21.7,1.7,32.5c-0.1,0-0.2,0-0.3,0c-0.6-3.9-1.3-7.8-2-12.7
			c-0.5,1.9-0.8,2.9-1.1,4.3c-0.6-4.6-1.2-8.8-1.9-13.7c-4.3,5.2-3.8,10.6-3.2,16c0.6,5.4,1.1,10.7,0.4,16.3
			c-1-7.8-1.9-15.7-2.9-23.5c-0.5,0.1-1,0.1-1.6,0.2c-1.4,11.6-5.9,23.2,1.3,34.9c1.8,3,1,7.5,1.9,11.2c1.5,6.4,4.6,11.3,11.9,12.5
			c1.8,0.3,4,1.9,5,3.5c1.8,3,3.8,3.3,6.6,2c5.3-2.4,10.7-3.9,15.6,0.8c0.1,0.1,0.3,0.3,0.4,0.3c7.2-2.4,8.8,4.1,12.8,9.1
			c-5.7-2.8-8.9-9.4-15.3-5.8c0.6,3,1.3,3.4,8.1,6c2.1,0.8,3.8,2.7,5.8,4c3.5,2.3,7.2,4.3,10.6,6.7c1.8,1.2,3.3,2.9,5,4.4
			c1.1,1,2,2.7,3.3,3c8.2,2.2,9.9,9.5,12.5,16c-2.2-3.6-4.4-7.2-6.6-10.8c-0.3,0.1-0.6,0.2-0.9,0.3c0.2,1.7,0.4,3.5,0.6,5.2
			c-4.4-10.8-13.3-14.9-23.4-17.4c-0.4,0.4-0.7,0.8-1.1,1.2c2.1,2,4,4.4,6.5,6c3.3,2.1,4.3,4.4,1.6,9.1c0.6-9-6.2-8.3-11.4-11.5
			c0.4,3.4,0.7,5.9,0.9,8.4c-0.2,0.1-0.3,0.1-0.5,0.2c-1.3-4.1-3.2-8.2-3.7-12.4c-0.6-5.4-3.2-7.4-8.6-7.5c0.5,5.6,0.9,11,1.4,16.4
			c-0.1,0-0.2,0-0.4,0.1c-0.6-2.4-1.4-4.8-1.9-7.2c-2.7-13.2-4.8-14.9-18.9-15.1c6.9,10.5,13.7,20.8,20.9,31.6
			c0.3-1.6,0.6-2.7,0.9-4.2c0.2,0.8,0.3,1.2,0.3,1.6c0.8,7.5,1.5,15.1,2.5,22.6c0.4,3.1,2.7,3.6,5.6,2.9c7-1.8,9.8,0.7,9.7,8
			c-0.1,3.1,0,6.1-0.7,9.4c-0.5-3.3-1-6.6-1.4-9.8c-0.9-6.4-1.5-6.7-7.7-4.3c-1.8,0.7-3.6,1.3-5.7,2c0,1.5,0,3,0,4.6
			c-3-6.1-5.8-12.2-4.3-19.4c0.4-2-0.3-4.5-1.1-6.5c-1.3-2.9-2.9-5.7-4.9-8.1c-2.1-2.5-4.9-4.5-7.3-6.7c-1.1,1.4-3,2.7-3.3,4.3
			c-0.5,2.7-0.2,5.5-0.2,9.7c-0.9-2.5-1.3-3.6-1.8-4.9c-5.1,3.6-6.2,7.4-4.6,12.7c0.9,2.7,0.8,5.7,0.7,8.6
			c-3.8-7.9-4.9-15.5,0.8-23.2c4-5.4,2.7-16.5-1.7-21.4c-0.9-1-1.5-2.4-2-3.7c-2.2-5.7-4.4-8.1-10.1-10.7c-1.6,1.3-3.2,2.7-4.7,4
			c1.6,7.2,3.2,14.3,4.8,21.5c-0.4,0.1-0.8,0.2-1.1,0.3c-2.2-7.1-4.4-14.2-6.5-21.3c-0.1-0.5-0.2-1.3,0.1-1.5
			c4.3-3.4,1.3-7.8,1.8-11.8c0.1-1,0.1-2.3-0.5-3.1c-6.1-9.5-9.6-19.8-10.4-31c-0.7-10-1.9-20,1-29.5c-3-2.2-6-4.4-9.1-6.6
			c0,5.5,0,11.3,0,17.1c-0.3,0-0.7,0-1,0.1c-0.5-4.1-0.8-8.3-1.7-12.4c-0.4-1.9-1.7-3.7-3.1-5.1c-0.8-0.8-2.8-1.1-3.8-0.5
			c-0.9,0.5-1.2,2.3-1.4,3.5c-0.2,1,0.3,2.1,0.3,3.2c0.2,5.4,2.9,10.2-0.1,16.3c-1.7,3.5,1.7,9.6,2.7,14.5c0.5,2.4,0.9,5,0.8,7.5
			c-0.1,5.3-0.2,10.2,3.4,14.9c5.1,6.7,6.7,14.6,5.3,23.6c-0.8-3.3-1.4-5.9-2.4-10c-2.9,5.7-9.7,8.1-5.4,15.8
			c1.2,2.1,0.4,7.1-4.3,8.5c-1.9,0.6-3.5,2.1-6.7,4.2c3.1,1.7,5.5,3.4,8.1,4.3c2.3,0.8,5,0.4,7.3,1.2c1.2,0.4,1.9,2.3,2.8,3.4
			c-3.7-1-6.4-2.2-9.2-2.4c-1.2-0.1-2.6,1.7-3.8,2.7c-2.1-2.9-4.5-6.3-7.7-10.6c2.1-1.8,4.4-3.7,6.6-5.6c2.7-2.4,3.5-4.9,1.7-8.4
			c-0.8-1.6-0.4-4.2,0.3-6c1.1-3.1,2.9-6,4.2-9.1c0.4-1,0.6-2.5,0.1-3.4c-1.9-3.3-4-6.4-7.6-9.6c-0.5,2.8-0.9,5.6-1.5,9.3
			c-0.7-1.4-0.9-2.7-1.4-2.8c-1.6-0.4-3.3-0.3-5-0.4c0.1,1.3-0.3,3.2,0.4,3.9c2.2,2.1,4.5,3.7,1.6,7.1c-0.7-1.5-1.1-3-2-4.2
			c-1.2-1.6-4.1-3.2-4-4.5c0.3-2.6,1.7-5.7,3.7-7.2c3.1-2.4,4.7-4.1,3.9-8.6c-0.6-3.7,1.4-7.8,2.2-11.8c0.3-1.4,0.9-3.1,0.3-4.1
			c-4.3-7-2-14.8-2.8-22.1c-0.6-5.2-1.9-10.4-2.6-15.6c-0.3-2.5-0.1-5-0.1-7.6c0.4-0.1,0.9-0.3,1.3-0.4c1.3,1.4,2.7,2.8,4.3,4.5
			c1.3-1.7,2.6-3.1,3.5-4.8c0.7-1.4,1.2-3.1,1-4.6c-0.1-0.6-2.5-1.5-3.5-1.2c-1.2,0.4-2.1,1.9-3.3,3.2c-0.5-1.2-1-2.7-1.5-4.2
			c-7,2.5-7,2.5-9,10.5c-0.5-1.4-0.9-2.4-1.4-3.7c-1.2,1.4-2.3,2.7-3.3,3.9c-0.3-0.1-0.5-0.2-0.8-0.3c0.3-1.3,0.7-2.6,0.9-4
			c0.2-1.4,0.2-2.9,0.4-4.8c-3.9,1.5-4.9,3.2-4.4,6.9c0.7,6.6,0.2,13.4-0.1,20.2c-0.5-3.4-1-6.8-1.5-10.2
			c-5.9,14.7-1.5,29.5-2.4,44.3c-1.1-7.9-2.1-15.8-3.2-23.8c-0.3-0.1-0.6-0.1-0.9-0.2c-0.7,2.8-1.5,5.6-2,8.4
			c-0.6,3.2,0.4,6.8-3.4,8.8c-0.4,0.2-0.1,2.4,0.3,3.5c2.4,6.5,5,12.9,7.6,19.3c0.7,1.6,1.5,3.2,2.6,4.5c3.2,3.8,5.9,7.6,2,12.6
			c-0.7,1-0.4,2.7-0.7,4.8c-1.1-2.1-1.9-3.6-2.7-5.1c-0.6,0-1.2,0-1.8,0c-0.3,4.4-0.6,8.8-1,13.8c-0.7-1-1.2-1.8-1.7-2.6
			c-6.1,2.5-4.7,8.4-6.2,12.9c-0.3,0.9,1.7,2.9,3,3.8c5.4,3.5,5.4,3.4,0,8.3c0.7-2.1,1.2-3.5,1.7-4.8c-0.2-0.3-0.4-0.7-0.7-0.8
			c-7-3.7-8.1-12.7-2.2-19.3c2.3-2.5,3.9-4.7,2.5-8.4c-0.4-0.9,1.6-3.5,3-4.2c4.7-2.4,5.3-5,1.7-8.8c-1.6-1.7-2.1-4.8-3.9-5.9
			c-5.8-3.5-2.5-11.4-8-15.5c-0.7,1.5-1.2,2.6-1.7,3.8c-0.4-0.3-0.7-0.5-0.8-0.8c-1.3-5.9-4-12,1.7-17.2c0.7-0.6,0.9-1.9,1-3
			c1.2-8.3,2.1-16.7,3.6-24.9c0.8-4.9,2.6-9.6,3.6-14.5c0.4-1.7,0.1-3.6,0.1-5.5c-0.6,0-1.3,0-1.9,0c-0.4,1.4-0.8,2.7-1.1,3.8
			c-1.3-1.9-2.8-3.9-4.2-5.9c-0.5,0.2-0.9,0.5-1.4,0.7c0.2,2.8,0.3,5.7,0.5,9.7c-2.1-4.1-3.5-7-5-9.9c-0.4,0.2-0.7,0.5-1.1,0.7
			c-0.5,4.6-0.6,9.2-1.5,13.7c-1.1,5.6-3.2,11-3.9,16.6c-0.7,5.6-0.2,11.3-1,17c-0.7-7.5-1.4-14.9-2.2-22.8
			c-4.9,0.7-8.9,1.3-7.8,7.2c0.1,0.3,0.2,0.9,0,1c-5.2,4.8-1.9,11.3-3.2,17c-5.2-9.4-0.7-17.6,2.7-25.9c-3.2,1.1-6.4,2.3-10.4,3.6
			c-0.1,0.8-0.3,2.5-0.6,4.2c-1.3-0.7-2.7-1.3-4-2c-0.5,1.4-1.4,2.7-1.4,4.1c-0.1,7.9-0.8,15.9,0.3,23.6c0.7,4.8,3.6,9.7,6.6,13.6
			c4.9,6.2,5.6,8.6,2.2,14c0.5,2.5,1.7,5.8,1.2,6.1c-3,1.6-6.3,2.5-10.2,3.9c-1,5.9-1,5.7-9.4,6.1c-4.1,0.2-8.2,1.2-12.7,2
			c2.7-3.9,6.7-4.5,10.8-4.6c1.7-0.1,3.5,0.3,5.3,0.7c3.2,0.6,4.5-0.9,3.7-3.8c-1.2-4.8,0.7-5.3,4.7-3.9c1.4,0.5,3.2-0.2,4.8-0.4
			c-0.3-1.2-0.4-2.5-0.9-3.5c-0.4-0.7-1.4-1-2-1.4c3.6-6.5,2.7-8.9-3.2-11.8c-2.5-1.2-6.8-2.4-3.4-6.9c0.2-0.3,0-1.3-0.3-1.4
			c-5.2-3-4.8-8.5-5.8-13.3c-0.3-1.7,0-3.5-0.2-5.2c-0.1-1.6-0.4-3.2-1.4-4.6c0.6-3.4,1.1-6.7,1.8-10.9c-3.4,1-5.6,1.7-8.7,2.6
			c3.9,4.5,2.5,6.4-1.7,8.8c-4.9,2.8-3,8.1-1.5,12.9c0.8-1.8,1.7-3.5,2.8-6c4.5,3.4,6.3,8.2,5.8,12.5c-0.5,4.6,1.4,6.4,4.3,8.6
			c1.5,1.2,3.7,3.2,3.6,4.6c-0.2,2.3-2.1,4.4-3.3,6.7c-2.1-1.3-4.1-2.5-6.2-3.8c-1.5,2.3-3.5,5.3-4.9,7.5c-5.2-2.7-10-5.1-14.8-7.6
			c-0.4,0.4-0.9,0.8-1.3,1.2c2.3,5.4,2.6,10.3-3.3,12.1c-2.8,0.6-6.1,0.5-8.1,2c-2.7,2-0.7,4.5,1.7,5.8c2,1.1,4.7,1.4,6.2,2.8
			c1.7,1.7,3.4,4.2,3.5,6.5c0.1,1.4-2.6,3-4.1,4.5c0,0,0.1,0.1,0.1,0.1c1.3-6.6,0.5-8.3-6.9-11.3c-3.5-1.4-5.3-3-5.1-6.8
			c0.2-3.7,2.2-5.4,5.8-6.4c7.3-2,7.5-2.8,2.6-8.8c-1.2-1.5-2.4-2.9-3.9-4.7c-1.1,1.6-1.8,2.7-2.6,3.8c-0.4-0.8-0.8-1.6-0.9-1.9
			c-3.1,0.4-6.2,0.5-9,1.3c-1.3,0.4-2.7,2.1-3,3.4c-0.6,2.6-0.5,5.5-1.2,8.3c-0.7-2.7-1.4-5.4-2.4-9.3c-1.8,1.1-3.9,1.8-4.8,3.3
			c-2.4,4.1-3.3,8.3,0.2,12.6c1,1.2,0.8,3.5,1,5c3.4,0,6.8,0,10.1,0c-0.3,3.3-0.9,6.5-0.7,9.8c0.2,4.6,0.9,9.1,1.4,13.2
			c-5.9-3.9-4.4-10.3-3.8-16.6c0.1-1.4-1.1-3-1.7-4.4c-1.7,0.9-3.4,1.7-5.1,2.6c0.2,0.2,0.3,0.3,0.5,0.5c-1.9,0.1-3.8,0.2-5.7,0.3
			c-2,0.1-4.7,1-5.8,0c-1.1-1-0.8-3.8-0.6-5.8c0.1-1.1,0.9-2.2,1.7-3.2c4-5.4,2.8-8.5-4.4-10.6c-0.4,1.2-0.7,2.4-1.2,4.1
			c-3-7.2-2.3-12.8,1.3-19.5c2.9-5.3,4.4-11,9.9-14.6c1.5-1-2-9.8-4.8-10.5c-4.8-1.2-3.6-4.2-3.1-7.3c0.2-1.5,0.5-3,0.8-5
			c-2.7,0.7-4.8,1.3-6.9,1.8c1.3,4.3,1.7,9,1.8,8.9c-3-4.2-6.1-8.4-9.2-12.7c-0.4,0.1-0.8,0.3-1.3,0.4c-0.3,2.5-0.7,5.1-1,7.4
			c-0.7-2.1-1.4-4.4-2.1-6.8c-0.4,0.1-0.8,0.1-1.2,0.2c-0.3,1.2-0.6,2.5-1.1,4.3c-0.6-1.5-1.2-2.5-1.5-3.6c-1-3-1.7-6.4-5-1.4
			c-0.2,0.3-1.8-0.4-4.1-1c-0.4,5.4-0.8,10.7-1.2,16.4c-0.7-1.7-1.2-3-1.8-4.6c-2.8,3.2-3.7,5.9-1.5,9.7c2.5,4.3,4,9.2,6.5,13.6
			c1,1.8,3,3.9,4.9,4.4c4.3,1.1,4.2,3.7,4.2,7.2c-0.1,4.4,0.7,8.7,0.3,13.2c-0.8-5.6-1.6-11.2-2.4-16.4c-3.4-2.6-6.9-5.3-11-8.4
			c-1.6,1.2-3.9,2.9-6.9,5c6.4,3.6,16.4,1.8,15.8,13.5c-2.1,0.8-5,1.8-7.9,2.9c1.1,1.8,2,3.4,3,5c-0.4,0.4-0.9,0.7-1.3,1.1
			c-0.8-1.1-1.7-2.1-2.5-3.2c-0.9-1.2-1.7-2.5-2.5-3.7c1.3-0.8,2.6-1.6,3.8-2.5c1.4-1.1,2.6-2.4,4-3.7c-2.1-1.3-4.1-3-6.4-3.5
			c-0.9-0.2-2.5,2.3-3.6,3.8c-0.4,0.6-0.2,1.6-0.2,1.8c-1.7-2.2-3.5-4.7-5.4-7.1c-0.5,0.3-1,0.5-1.5,0.8c-0.1,0.8-0.5,1.6-0.3,2.3
			c1.6,6.9-1.8,10.8-7.4,14c-4,2.3-3.6,4.5,0.6,6.8c1.1,0.6,2.1,1.2,3.1,2c4.7,4,4.6,4.8,0,8.9c-3.3,2.9-6.2,6.1-10.2,10.1
			c3.1,0.3,4.5,0.4,6,0.5c0,0.6,0,1.1,0,1.7c-2.2,0-4.3,0-6.5,0c0.2-1.9-0.1-4.2,0.8-5.6c1.7-2.5,4-4.8,6.4-6.7
			c2.7-2.1,3.8-3.6,0.3-5.9c-2.3-1.6-4.3-3.8-6.7-5.1c-4.7-2.5-2.7-4.8-0.1-7.3c1.9-1.8,3.8-3.7,5.6-5.6c3-3.1,4.6-6.5,3-11
			c-0.6-1.6,0.3-3.8,0.4-5.4c-1.9-2.7-3.8-5.3-6.2-8.8c0.8,5.4,1.6,9.9,2.3,14.5c-2.8-6.4-5.4-12.8-4.1-20.1
			c1.5-8.2,2.2-16.3-4-23.5c-1.9-2.2-2.6-5.4-4.3-9c-0.8,0.3-2.5,0.9-4.4,1.6c-0.3-1-0.5-2-1-3.5c-0.6,1.6-1.1,2.8-1.6,4
			C270,164.4,270.1,164.5,270.1,164.5z M446.1,130.9c-1.7-2.6-3.3-5-5.1-7.8c6.1-6.5-3.5-5.9-4.5-10.7c-0.9,2.2-1.3,3-1.5,3.5
			c-2.2-3-4.3-5.8-6.4-8.7c-0.5,0.3-0.9,0.5-1.4,0.8c0,1.5,0,3.1,0,5c-1.2-1-2-1.6-2.6-2.2c0,16.5,0,32.7,0,49.8
			c6.7-3.5,13.7-7,20.5-10.7c0.8-0.4,1.5-2,1.4-3c-0.1-2.3-0.7-4.5-1.4-8.3c-2.8,3.3-4.9,5.9-7.3,8.6c-4.4-3.6-5.6,3.3-8.9,4.7
			c-0.3-0.4-0.6-0.7-0.9-1.1c4-4.9,7.9-9.8,12.5-15.5c-1-1.5-2-3.9-3.7-5.5c-2.4-2.2-5.6-3.6-8-5.9c-3.3-3.2-1.5-6.2,1.2-9
			c0.3-0.3,0-1.1,0-1.6c0.4,0.1,0.8,0.1,1.2,0.2c-0.4,2.2-0.8,4.3-1.1,6.1c0.9,1.4,1.8,2.8,2.8,4c1,1.1,2.1,2.2,3.3,2.8
			C439.2,128.1,442,129.1,446.1,130.9z M320,142.3c-1.3,4.4-2.5,8-3.3,11.7c-0.9,4,2.2,8.4,6.1,7.8c4.5-0.7,6.7,1.4,9.1,4.4
			c2.8,3.5,7.6,2.5,8-1.9c0.5-4.9,0.2-10.2-0.9-15c-1.1-4.8-3.6-9.2-5.4-13.8c-0.6,0.1-1.2,0.2-1.8,0.4c0.4,5,0.7,10,1.2,15.9
			c-4.3-7.4-5.2-0.8-7.3,0.9c1-2.3,2.3-4,3.4-6c0.6-1.1,1.6-3.1,1.1-3.7c-4.2-5.1-2-9.8,1-14.4c-3-1.3-5.6-2.4-8.6-3.8
			c0.2,3,0.3,5.6,0.5,9c-1-2.8-1.6-4.8-2.4-7.1C316.7,132.7,317,140.1,320,142.3z M595.1,93.4c-3.7,1.5-6.8,3.7-10.1,4
			c-5.7,0.5-8.5,3.7-10.4,8.3c-0.6,1.4-0.1,3.2,0,4.9c1.5-0.1,3.2,0.4,4.4-0.2c3.3-1.7,6-1.5,9.4,0.3c1.9,1,5.6,0.5,7.3-0.8
			c2.6-2.1,4.3-1.8,6.9-0.5c1.9,0.9,4.9,1.9,6.3,1c1.8-1.1,3.3-3.9,3.6-6.2c0.3-2.9-0.7-5.9-1.2-9c-4.5,0-8.8,0-13.4,0
			c-0.2,2.6-0.4,5-0.7,8.4C596.3,99.7,595.7,96.8,595.1,93.4z M400.9,201.5c-0.9-7.4-2.1-16-3.2-24.9c-2.8,4.4-5.9,7.7-7.1,11.6
			c-1.5,4.6-1.7,9.7-1.7,14.6c0,2,1.6,4.2,3.1,5.8c1.9,2.1,4.3,3.9,6.6,5.6c2,1.4,4.4,2.4,6.6,3.6c0.4-0.6,0.8-1.3,1.3-1.9
			c-2.7-2.5-5.4-5-8.8-8c7,0.8,13.1,2.6,17,9c3-3.7,1.2-5.4-1.8-6.8c-4.2-1.9-5.5-4.6-4.1-9.3c0.8-2.8-0.3-6.2-0.6-9.4
			c-0.7-0.1-1.3-0.2-2-0.3C404.2,194.9,402.3,198.7,400.9,201.5z M414.3,165c1.7-6.1,3.2-11.4,4.6-16.7c0.2-0.9-0.4-2-0.6-3
			c-0.2-1.3-0.6-2.6-0.3-3.8c2.4-10.4-2.4-18.4-8.5-27.2c1.8,14.4,3.6,27.7,5.3,41c-0.4,0.1-0.9,0.1-1.3,0.2
			c-0.7-3.7-1.4-7.4-2.1-11.1c-0.6,0-1.2,0-1.7,0c-0.7,2.7-1.3,5.3-2,8c-0.2,0.7-0.3,1.7-0.7,1.9c-4.8,2.2-5.2,7-6.1,11
			c-1,4.9-0.7,10.1-1,16c4.6-2.8,6.9-5,4.2-9.2c-0.5-0.8,0.4-3.5,1.3-3.9C408.4,166.6,411.7,165.8,414.3,165z M344,223.1
			c1.7-2.6,2.9-6.6,4.6-6.8c8.2-1.2,4.3-9,7.4-12.8c0.1-0.1-2.4-3-3-2.7c-2.4,1-5.7,1.5-5,5.6c0.1,1-1,2.4-1.9,3.2
			C340.1,214.3,339.2,218.1,344,223.1z M352.6,173.6c-3.1,5.9-0.2,15.9,5.4,21.7c-0.3-6.7-0.7-13.3-1-20c-0.6,0.1-1.1,0.1-1.7,0.2
			c-0.2,1.5-0.4,3.1-0.8,5.7C353.7,178.2,353.3,176.4,352.6,173.6z M411.9,100c-3.7,8.6-3,10.3,7.4,18.3
			C417,112.5,414.6,106.6,411.9,100z"/>
		<path class="st0" d="M121.2,196.6c-6.9,3.4-12.7,6.2-18.8,9.2c0.1-0.9-0.3-2.2,0.2-2.7c3.3-3.1,6.5-6.3,10.1-9
			c7.6-5.5,9.1-9.8,5.8-19.6c-8.8,4.1-18.1,6.7-25.3,14.1c-6.2,6.4-13.4,11.8-20.7,17c-2.8,2-6.2-0.2-8.5-3.3
			c6,3.4,9.2-0.2,12.3-4.3c2.9-3.8,5.4-7.8,8.9-11c5.3-4.9,11.1-9.3,16.9-13.4c3.6-2.5,7.8-4.1,11.5-6.5c1.2-0.8,2.7-3.1,2.3-4.1
			c-0.8-2.1-2.5-3.9-4.3-5.3c-0.8-0.7-2.7-0.1-4.5-0.5c8.9-2,7.8-8.9,8.5-16c-2.8,0.7-5.6,0.6-6.9,1.9c-4.9,5.1-10.5,5.7-17.1,3.5
			c-0.3,2.2-0.5,3.7-0.7,5.7c-0.9-1.5-1.6-2.6-2.8-4.5c-0.5,2.5-0.9,4.3-1.1,5.6c-1.3-2.5-2.8-5.4-4.8-9.3c-2.5,2.8-4.2,4.7-5.4,6.1
			c-1.7-0.7-4.7-2.7-5.3-2.2c-2,1.9-3.2,4.6-4.3,6.4c0-0.2-0.2-1.6-0.6-2.9c-0.2-0.8-0.5-1.9-1.1-2.3c-0.9-0.5-2.8-1.1-3.1-0.7
			c-2.9,4.1-11.4-5.1-11.4,5c-7.2-2.1-11.4,1.2-10.8,8.2c0.2,2.4-0.3,4.8-0.5,7.8c-2.7-1.2-4.5-2-6.4-2.8c-1.7-0.7-3.5-1.4-5.8-2.3
			c0,2.5,0,4.1,0,5.8c-5.3-2.2-12.5,1.8-12.5,8.1c0.1,7-4.5,9.8-8.8,13.4c-1.6,1.3-2.8,3-4.2,4.5c-0.7-0.6-1.3-1.3-2-1.9
			c2.9-2.8,5.9-5.6,8.7-8.4c1.1-1.1,2.4-2.3,2.9-3.7c2-5.1,3.7-10.3,5.5-15.5c2.3,0.2,3.9,0.4,5.5,0.5c3.1-7.4,3.1-7.4,14.3-2.2
			c-0.3-3.8-0.3-7-0.8-10c-0.7-4.7-1.1-8.9,5.8-8.1c0.3,0,0.8,0,1-0.2c1.8-1.6,3.4-3.6,5.5-4.8c1.9-1,4.3-1.1,8-2
			c-4.7-3.5-8-5.9-11-8.1c-0.4,0.2,1.1-0.8,1.3-0.5c3.4,3.3,9.5,2.3,11.9,7.5c0.5,1.1,3.2,2.1,4.4,1.7c2.9-1,5.4-2.9,8.2-4.3
			c1-0.5,2.3-0.5,3.4-0.8c3.8-1,7.5-2.2,11.3-2.9c1.4-0.3,3.1,0.6,4.8,1c0.9-6.6-0.1-8.4-6.1-10.6c5.6-1.3,5.3-1.1,8,3.3
			c1.3,2.1,4,3.3,6.1,4.9c1.1-2.1,2.3-4.2,3.3-6.4c0.5-1.1,0.2-3.1,0.8-3.4c6.7-3.1,5.9-10.6,9.3-15.5c0.5-0.7-0.8-3.5-1.9-4.1
			c-3.6-1.9-7.6-3.3-12.1-5.2c0.4,3.7,0.7,7.6,1.1,11.4c-0.1,0-0.2,0.1-0.4,0.1c-0.6-2.8-1.5-5.5-1.8-8.3c-0.6-4.8-3.2-6.5-7.9-6.1
			c-3.1,0.2-7,2.1-9.1-2.4c-0.2-0.5-2.1-0.8-2.4-0.5c-3,3.3-9.2,0.5-11.3,5.9c-0.3,0.7-3.3,0.6-5,0.5c-5.5-0.1-11.1,1.6-16.3-2.6
			c-1.9-1.6-5.8-0.6-9-0.9c2.1-3.9,5.9-2.2,9.1-2.2c3.4,0,6.8-0.1,10.1,0.4c5.7,0.9,9.9-2.9,14.7-4.7c1.6-0.6,3.3-5.5,2.4-6.8
			c-2.8-4.3-6.4-8.3-10.3-11.6c-1.6-1.3-4.9-0.6-7.9-0.9c0.3,3,0.5,4.7,0.7,6.4c-4-5.2-7.9-10.2-12.4-16c-0.2,2-0.3,3.1-0.5,4.4
			c-1.4-2-2.6-3.9-4.7-6.9c-0.7,3.1-0.8,4.9-1.4,6.5c-0.8,2-1.9,3.9-3,5.8c-1.6-0.9-3.1-1.8-5-2.9c-2,3.6-4.3,4.2-7.9,1
			c-3.2-2.9-11.3-1.1-13.8,3.8c-0.5,1-1,2.1-1.7,3.4c-1.1-4.2-0.9-4.8,4-9.2c5.9-5.4,10.7-0.1,15.9,2.1c1-1.7,1.8-3.1,2.9-5
			c1.7,1.7,3.2,3,5.9,5.6c0.3-3.8,0.3-6.5,0.9-9c0.4-1.9,1.2-4.5,2.6-5.1c1.4-0.7,3.9,0.4,5.7,1.2c1.4,0.6,2.6,1.9,3.6,3.1
			c3.1,3.9,5.6,8.5,11.8,4.2c1.1-0.8,4.8,0.6,6.1,2.1c4.1,4.7,10.1,6.3,14.9,9.7c2.7,1.9,5.3,4.4,8.3,5.7c1.8,0.8,5.8,3.2,6.3-2.4
			c0.3,2.2,0.7,4.3,1,6.2c6.4,1.3,13,2.7,19.7,4c-1-8.1-20.4-24-31.8-25.5c3.3-1.9,5.6-3.1,8.2-4.6C85.3,49.7,80.9,40.7,70,39
			c-0.3-0.1-0.8,0-0.9-0.2c-6.2-9.9-17-10.4-26.7-13c-1.2-0.3-2.3-0.9-3.8-1.6c-2.6,5.4-5.3,3.5-7.7-0.4c-3.1,4.2-3.1,4.2-12.3,2.6
			c2.6-3.3,11.6-5.7,15.6-4.1c2.6-4.5,6-3.3,9.9-1.5c4.7,2.2,9.8,3.6,14.7,5.3c0.5-0.7,0.9-1.4,1.4-2c-2.2-2.1-4.5-4.2-6.2-5.8
			c3.8-0.4,3.6-0.3,6.7,3.6c1.5,1.8,4,2.7,5.8,4.4C74.6,34.5,84,41,91.1,50.7c6,8.3,13.1,17.5,24.1,21.2c3.9,1.3,5.7,0.5,4.9-3.5
			c-0.8-3.9-2-8-3.9-11.5c-2.8-5-6.7-9.4-9.8-14.4c-2-3.2-3.2-6.8-4.2-10.4c7.2,10.4,15.2,20.4,21.3,31.5
			C129.3,74.2,132.9,86,138,97c2.4,5.1,6.1,9.7,9.6,14.3c6,7.9,12.3,15.6,18.4,23.4c3.6,4.6,5.5,4.6,9.1-0.9
			c-3.1-4.5-6.3-9.1-9.7-13.9c1.1,0.7,2.7,1.2,3.7,2.3c3.3,4,6.8,7.9,9.5,12.3c0.8,1.2-0.3,4.4-1.5,5.9c-4.3,5.5-7.2,8.7-3.1,16.4
			c1.7,3.3,1.4,7.6,2,11.4c-0.5,0.1-1,0.2-1.5,0.3c-0.5-1.8-1-3.7-1.5-5.5c-0.2,0-0.4,0-0.6,0.1c-0.2,4.8-0.3,9.7-0.7,14.5
			c-0.7,6.6-1.8,13.2-2.5,19.8c-0.2,1.7,0.2,3.5,0.6,5.2c0.3,1.7,0.7,3.4,1.5,5c1.1,2.2,2,4.9,3.9,6.4c5.7,4.5,6.5,6.7,3.3,13.5
			c-0.3,0.7-0.6,1.5-0.9,2.3c2.1-0.4,4.8-1.7,5.4-1c1.2,1.3,1.1,3.6,1.6,5.6c0.3,1.3,0.4,2.7,0.9,3.9c1.2,3.6,2.6,7.2,3.3,10.7
			c-1.7-3.2-3.8-6.4-5.1-9.8c-0.8-2.2-0.7-4.7-1-7.9c-1.8,1.5-3.2,2.7-5.9,5c-0.5-3-1.3-5.3-1.3-7.5c0-3.9,2.8-8.1-3.7-10.2
			c-2-0.7-2.6-5.3-4-8.2c-0.7,0.8-1.3,1.5-1.9,2.2c-0.6-0.1-1.2-0.1-1.8-0.2c0-10.5,0-21.1,0-31.6c0-3.7,0-7.4-0.3-11.1
			c-0.4-5.8-1.7-6.7-8.7-6.4c0,2.9,0,5.8,0,8.8c0,2.8,0,5.5,0,8.3c-0.4,0-0.7,0-1.1,0.1c-0.2-4.3-0.6-8.6-0.6-13
			c0-3.7-1.8-5.9-5.3-5.8c-3.4,0.1-5.4,2.1-5.3,5.9c0.1,5.5,0,10.9-0.9,16.4c-0.8-7.4-1.6-14.8-2.4-22.1c-3.5,2.5-6,4.7-8.8,6.4
			c-3.4,2-3.6,4.3-2.5,8c1.6,5.2,1.9,10.8,3.3,16.1c0.9,3.4,2.8,6.6,4.4,9.7c2.1,3.9,4.6,7.6,6.7,11.5c0.5,0.9,0.1,2.3,0.1,3.8
			c-2.5-3.6-4.7-6.8-7.1-10.4c-0.4,0.2-1.6,0.8-1.6,1c1,3.8,1.9,7.7,3.4,11.3c0.9,2.3,3.5,4.1,4.1,6.4c1.8,7.5,6.1,12.9,12.2,17.3
			c1.2,0.8,2,2.3,2.6,3.7c1.3,2.6,2.6,5.3,3.4,8.1c2.1,7,5.4,13.9,1.7,21.5c-1.1,2.1-0.7,5-1.1,7.8c3.5-0.8,6.2-1.9,8.8-1.9
			c3.6,0.1,5.3,2.2,4.1,6.1c-0.7,2.4-0.9,4.9-2.6,7.5c0-2.4,0-4.8,0-7.2c0-1,0-2.7-0.4-2.8c-1-0.4-2.6-0.5-3.4,0.1
			c-2.5,1.9-5.8,3-7.7,0.9c-1.5-1.6-1.5-5.3-1.1-7.8c1.9-11.6-1.5-21.7-8.4-31.6c-1.1,1.5-1.7,2.4-1.8,2.5c-1.8-1.5-3.7-3.3-6.1-5.3
			c-1.5,5.8-2.4,10.7-4,15.2c-1.1,3-2.6,6.2-4.8,8.5c-6.1,6.6-4.4,13.6,4.3,16c5.1,1.4,9.9,3,12.4,8.4c-3.1,1-7.7-6.3-9.3,1.5
			c-1.9,9.3,8.4,1.7,9.2,8.9c-2.4,4.2-5.9,10.2-9.1,15.7c-2.9-5.7,4.7-9.1,5.6-14.2c-0.9-0.7-1.2-1-1.5-1.1
			c-7.8-1.5-7.2-1.5-7.8-9.6c-0.2-3.1-3.7-7.4-6.6-8.4c-5.2-1.8-5.8-5.9-7.2-9c3.4-7.1,6.6-13.8,9.7-20.5c0.1-0.3,0.1-0.7,0.1-1.1
			c-1.6-10.2-0.3-20.8-5.3-30.4c-0.5-0.9-1.7-1.4-2.6-2c-0.6,0.8-1.4,1.5-1.6,2.3c-0.3,1.2-0.2,2.5-1.3,3c-1.6,2-3.5,3.8-4.8,6
			c-1.4,2.4-2.7,5-3.3,7.7c-1,4.2-1.4,8.6-1.9,12.9c-0.4,3.6-1,7.3-0.9,11c0.1,4.4,1.2,8.8,1.4,13.3c0.3,4.8,0.1,9.7,0.1,14.5
			c-0.6,0-1.3,0-1.9-0.1c0.2-2.1,0.8-4.2,0.7-6.3c-0.2-2.9,0-6.6-1.7-8.5c-3.1-3.3-2.7-6.1-1.8-10c0.8-3.4-0.4-7.3-0.6-11
			c-0.1-3.1,0-6.1,0-9.2c-5.4-0.7-9.8,3.2-9.6,9.1c0.2,4.8-0.5,8.5-4.7,11.5c-1.4,1-1.9,4-2,6.2c-0.1,5.5-2.6,9.1-7.8,10.6
			c-4.8,1.4-8.8,3.4-10.2,8.8c-0.5,1.7-2.4,3-4,4.8c-0.5-1.2-0.9-1.6-0.8-1.8c2.4-4.1,4.4-8.5,7.3-12.1c1.6-2,4.6-3.4,7.2-3.8
			c3.8-0.7,5.2-2.3,4.8-6c-0.2-2.3-0.7-4.6-0.3-6.9c0.2-1.6,1.3-3.6,2.5-4.3c2-1.1,5.5-0.8,4.6-4.4c-0.9-3.3-3.4-4.7-6.9-3.3
			c-0.4,0.2-1,0-2.2-0.1c8.3-8.3,17-15.7,24-24.5c3.3-4.1,7.9-8.3,8.4-14.6c0.2-2.3,3.4-4.3,3.7-6.6
			C121.6,206.6,121.2,202.3,121.2,196.6z M143.4,121.9c0.8-4.2-1.8-6.1-5.3-8.2c-0.2,3.6-0.4,6.7-0.6,10.4c2.4-0.9,4.2-1.7,6.1-2.4
			c-0.4,1.6-0.9,3.3-1.2,4.6c-2,0-3.6,0-5.2,0c1.8,11.6,16.6,24.3,26.8,22.3c-1.7-4.1-3-8.2-5-12c-3.9-7.5-5.5-7.8-12.1-3.1
			c-0.1,0.1-0.5-0.2-0.4-0.1c0.7-2.7,1.9-5.4,2.1-8.1C148.8,121.8,146.1,120.3,143.4,121.9z M137.4,145.1c-3.9-5.1-8.1-9.7-6-17.3
			c2.3-8.1-2.1-19.2-8-23c1.5,8.8-1.4,16-7.3,22.7c6-2.3,11.5-4.5,11.8-11.9c0.3,2.6,0.1,5-0.8,7.1c-1.4,3.3-4.4,6.2-4.9,9.6
			c-0.8,5.9-0.3,11.9-0.1,17.9c0.1,3.5,0.8,6.9,1.3,10.4c0.5,0,1.1,0.1,1.6,0.1c0.9-4.9,1.9-9.9,2.8-14.8c0.3,0,0.7,0.1,1,0.1
			c0,3.6,0,7.1,0,11c6.7-3.3,12.4-6.9,19.5-5.8c0.6-0.7,1.5-1.7,2.3-2.6c-5.1-5.5-10.2-11-15.3-16.4c-0.4,0.1-0.8,0.1-1.3,0.2
			C135.2,136.6,136.3,140.9,137.4,145.1z"/>
		<path class="st0" d="M178.6,204.7c0.3-1.1,0.7-2.3,1.2-3.9c-2.4,0.7-4.5,1.3-8.1,2.3c1.2-3.2,1.8-5,2.6-6.9c0.8-2,2.8-4.2,2.4-5.7
			c-2.1-6.9,0.8-13,2-19.5c0.9-5,1-9.3,5.7-11c0.3-3,0.7-5.4,0.9-7.8c0.2-2.7,0.3-5.4-3.1-5.7c-1.9,2.7-3.7,5.2-5.5,7.7
			c-0.4-0.2-0.8-0.4-1.2-0.6c1.7-3.5,2.9-7.4,5.1-10.5c2.8-4,4-10,1.8-14.6c-0.2-0.5-0.5-1-0.6-1.5c-0.9-5.4-3.2-9.3-9.1-11
			c-3.2-0.9-5.9-3.5-8.9-5c-1-0.5-2.5-0.1-3.3-0.1c-4.1-5-3.6-12.8-11.2-15.8c-1.6-0.6-1.6-5.4-1.6-8.5c3,4.4,5.9,8.7,8.9,13.1
			c-0.9-7.6-1.6-15.1-8.4-20.3c-6.3-4.8-10-11.4-11.2-19.1c-0.2-1.6,1.5-3.6,2.7-5.2c0.9-1.2,3.7-2.5,3.6-2.9
			c-0.8-1.9-1.9-4.2-3.6-5.2c-3.6-2.1-8-3.2-4.6-8.8c0.1-0.2,0.1-0.9-0.1-1c-5.7-3.5-5.8-12.2-13.5-14c-2.5-0.6-4.6-3.1-6.4-5.4
			c3.3,1.5,7.1,2.3,9.6,4.5c5.8,5.1,12.1,10.2,13,18.9c0.1,0.8,1.1,1.8,2,2.3c5.5,3.7,7.2,8.8,6.2,14.6c-2,1.2-4.1,1.8-5,3.2
			c-0.5,0.8,0.9,3.2,2,4.3c4.9,5.5,9.9,11.1,15.2,16.2c2.3,2.3,5.5,3.6,9.1,5.9c0.7-2,2-3.7,1.6-4.8c-1.2-3.3-1.1-6.5,1.9-7.8
			c1.3-0.6,4,2.1,6.1,3.2c0.3,0.2,0.7,0.1,1.7,0.3c0.6-6.8-8.2-8.1-8.2-14.5c1.6-0.6,3.1-1.2,4.9-1.9c1.4-4.8-5.1-9.6-0.9-14.3
			c0.9,3.7,2.2,7.4,2.8,11.2c0.3,2.3-0.5,4.7-1.5,7c2.8,5.3,8.3,10,6.7,17.9c-3-0.6-5.7-1.1-8.5-1.6c0.4,3.8,0.5,7.3,1.3,10.6
			c0.5,1.9,1.7,4.1,3.3,5c4.9,3,10.4,5.1,15.2,8.3c8.8,6.1,16.6,13.4,20.2,24c0.4,1.3,0.8,2.8,1.6,3.8c6.1,7.7,7.9,15.6,2.3,24.4
			c-0.6,0.9-0.7,2-1.1,3.1c-1.9-1.2-3.7-2.4-6.2-4c-0.2,2.5-0.4,4.1-0.5,5.4c-1.7-1.5-3.6-3.2-6.6-5.8c-0.3,4.2-0.4,6.6-0.6,8.9
			c-0.3-0.5-0.6-1.1-1.7-3c0,4.3,0,7.2,0,10.1c-0.2,0-0.4,0-0.5,0.1c-0.7-4.1-1.5-8.1-2.2-12.2c-0.5-0.2-1-0.4-1.5-0.5
			c-1,1.7-2.9,3.5-2.7,5.1c0.8,8.6,1.6,17.2,3.4,25.6c0.6,2.7,4.3,5,6.9,6.9c6.7,4.7,7.2,5.6,4.9,13.3c-0.3,1-0.8,2-1.2,3
			c-1.7-3.7,4.4-8-0.9-11c-2-1.1-4.7-0.8-7.4-1.1c-1.4-2-3.5-4.8-5.6-7.6c-0.6,0.3-1.2,0.7-1.7,1c3.9,7.7,1.1,17.3,9.3,24.2
			c5.4,4.6,8.6,11.9,12.6,18.1c2.3,3.5-1.6,12.9-5.8,14.9c-2.3,1.1-4.7,2.5-6.5,4.2c-1,0.9-1.8,3.7-1.2,4.2c1.2,1.1,3.1,1.6,4.8,1.8
			c1.9,0.1,3.9-0.5,5.9-0.8c0.1,2.3,0.4,4.6,0.4,7c0,2.2-0.4,4.5-0.7,7.5c-1-1.3-1.6-2-3.1-3.9c-1.2,13.6-2.4,26-3.5,38.3
			c1.3-15.3-3.4-31.4,6.7-45.6c-0.6-0.4-1.2-0.8-1.7-1.3c-2.9,1.7-5.8,3.3-8.6,4.9c-0.1-0.1-1.3-1.2-2.5-2.3
			c-0.3,0.4-0.5,0.8-0.8,1.1c-5.1-7.1,1.6-11.6,3.8-17c0.5-1.3,3.8-1.4,5.6-2.3c5.7-3.1,5.6-6.3,1.2-10.8c-3.8-3.8-9.2-6.8-9.4-13.3
			c0-1.1-0.8-2.5-1.8-3.1c-6.5-4.2-8.3-10.1-6.8-17.4c0.1-0.5,0-1.1-0.2-1.6c-0.1-0.3-0.4-0.5-1.2-1.4c-1,3-2,5.6-2.9,8.2l0.1,0.2
			c-0.3-12.4-0.7-24.7-1-37.1c-0.6,0-1.1,0-1.7-0.1c-0.1,5.6-4.6,10-2.4,16.6c1.1,3.2-1,7.6,0.5,11.6
			C181.8,201.8,179.6,203.4,178.6,204.7L178.6,204.7z M187,112.6c-0.3,0.4-0.7,0.8-1,1.2c2.9,13.7,5.7,27.5,8.6,41
			c2.9-0.6,6.2-1.2,9.3-2c3.3-0.8,6.5-1.9,9.7-2.9c0-13.6-4.2-18.3-14-16.5c-0.8,4.4-1.7,8.6-2.6,13.4c-1.6-3.5-3.9-6.5,0.1-9.6
			c0.5-0.4,0.6-1.7,0.4-2.4c-1-3,0.4-4,3-5c1.1-0.5,2.4-3.8,2-4.2C197.4,121.1,192.1,116.9,187,112.6z M175.8,111.4
			c-2.2-4-4-7.2-5.8-10.3c-0.3-0.6-0.9-1.2-1.5-1.4c-3.4-1-6.4-2.2-6.6-6.6c0-1-2.3-1.8-4.1-3.2C160.4,110.4,160.1,106,175.8,111.4z
			"/>
		<path class="st0" d="M224.6,135.5c-4.1-2.9-5.7-7.2-6.9-11.8c-0.4-1.6-1.7-3-2.4-4.6c-2.4-5.2-4.7-10.4-7.2-16
			c-1.1,0.8-2.5,1.7-5.1,3.4c-0.6-4.5-1.2-8.2-1.8-12.4c1,0.5,2.4,1.2,3.6,1.9c-0.8,2.7-1.5,4.9-2.5,8.3c6.8-4.2,8.3-3.5,9.9,2.7
			c0.7,2.8,2.1,5.5,3.5,8.1c2.3,4.2,4.9,8.3,7.4,12.4c0.5,0.9,1.1,2.4,1.7,2.4c6.8,0.5,9.5,6.8,14.4,10c4.7,3.1,10.1,5.3,14.6,8.7
			c4.6,3.6,8.5,8.1,12.7,12.2c1.2,1.2,2.4,2.4,3.6,3.6c0,0-0.1-0.1-0.1-0.1c2.4,3,4.8,6,7.2,8.9c2.4,2.8,4.1,5.5,2.4,9.5
			c-0.8,1.8-0.1,4.2-0.1,6.3c-0.6,0-1.1,0-1.7,0.1c0-2.2,0.1-4.3,0-6.5c-0.1-1.5,0.1-3.2-0.7-4.3c-0.6-0.9-2.3-1.4-3.5-1.4
			c-0.6,0-1.5,1.8-1.5,2.7c0,7.2,0.3,14.5,0.4,21.7c0.1,2.5,0,5.1-1.1,7.6c-0.5-5.9-0.9-11.7-1.4-17.6c-0.6-0.1-1.2-0.2-1.7-0.4
			c-0.7,2.4-1.4,4.9-2.1,7.3c-0.9-0.3-2.1-0.7-3.2-1c-0.3,0.5-0.7,0.8-0.7,1c1.7,4.9-1.8,8.2-4.3,11.2c-2.5,3-2.7,5,0,7.6
			c2.6,2.5,5.5,4.9,7.3,8c1.4,2.5,1.4,5.9,2.1,9.3c2.8,0,7.1-1.5,7,3.5c-10.2,1.8-9.5-8.6-15-13.8c-0.5,2.5-0.9,4.1-1,4.4
			c-2.3-3.2-5.1-7.1-8-11c-0.5,0.2-0.9,0.3-1.4,0.5c0,7.8,0,15.5,0,23.3c-0.4,0-0.7,0-1.1,0c-0.3-5.9-0.9-11.8-1-17.7
			c0-6.4-3.6-9.4-9-11.4c-1.5-0.5-2.7-2-3.7-3.2c-1.6-1.9-3.1-3.9-5.5-7.1c-0.4,3-0.5,4.3-0.7,5.8c-0.5-0.3-1-0.4-1.2-0.7
			c-2.3-4.3-4.1-8.9-7-12.7c-1.2-1.5-4.7-1.2-7.2-1.7c0.1,1.9,0.1,3.9,0.5,5.8c0.6,2.9,1.5,5.8,2.2,8.7c0.3,1.1,0.2,2.3,0.5,3.4
			c0.9,3.6,1.9,7.2,2.9,10.8c-0.4,0.1-0.8,0.2-1.3,0.3c-1.2-5.8-2.4-11.6-3.7-17.3c-0.4-1.6-1.2-3.5-2.5-4.5
			c-3.9-3.4-3-6.6-0.5-10.2c2.3-3.3,5-6.4,3.8-11c-0.2-0.8,0.6-1.9,1.2-2.8c3.1-5,6.4-9.8,9.2-14.9c0.9-1.7,0.4-4.2,1.1-4.3
			c0.7-2,2-3.9,2.1-5.9c0.1-1.8-1.3-3.6-1.7-5.4C225.6,142,225.2,138.7,224.6,135.5c1.9,4.1,3.8,8.1,6,12.8c2.5-0.6,5.1-1.1,7.8-1.7
			c-3-3.8-4.9-7-7.6-9.4C229.4,136,226.7,136.1,224.6,135.5z M226.8,191.2c0.4-0.2,0.8-0.4,1.2-0.6c1.6,1.6,3.3,3.1,4.8,4.7
			c3.1,3.5,5.7,7.8,9.4,10.5c1.4,1.1,5.2-1,8-1.6c0.2,0,0.3,0.1,0.5,0.1c4.6,1.9,4.8-1.7,5.9-4.4c1.3-3.4,2.3-6.9,4-10.1
			c2.3-4.3,1.4-8.6-2.4-11.6c-4.3-3.4-8.4-7.2-12.2-10.6c-1.8,0.1-3.8,0.2-5.5,0.3c2.2-2.2,5.1-3.8,5.2-5.6c0.2-2.7-1.3-5.7-2.5-8.4
			c-0.2-0.4-2.7,0.3-4.9,0.5c2.6,4.8,0.7,6.5-3.4,7c-0.9,0.1-1.9,1-2.5,1.8c-2.2,3.1-4.4,6.3-6.4,9.5c-1,1.7-1.5,3.7-2.7,6.6
			c3.4-0.4,5.6-0.4,7.7-0.9c4.7-1.2,8.1,0,10.5,4.5c1.6,3,4.3,5.5,6.8,8.6c-3.5-1.9-8.4-2.9-9.9-5.7c-2.6-5-4.8-4.6-8.5-2
			c-1.2,0.9-2.7,1.4-3.8,1.9C226.3,187.9,226.5,189.5,226.8,191.2z M247.3,155.4c-0.6,0.4-1.2,0.8-1.7,1.2c0.8,2.3,1.5,4.6,2.5,6.8
			c0.8,1.7,2.3,3.2,3,4.9c1.5,3.8,8.3,7.8,12.6,6.8c-0.7-1.4-1.4-2.7-2.1-4c1.2,0.2,2.3,0.5,4.2,0.8
			C260.9,164,254.6,159,247.3,155.4z"/>
		<path class="st0" d="M496.8,113.7c0-3.5-0.1-7.5,0.1-11.5c0-0.8,1.1-1.7,1.8-2.4c1.7-1.8,3.4-3.6,5.1-5.3
			c-1.9-1.6-3.7-3.2-6.6-5.6c2-2.5,4.5-5.4,6.1-7.3c-3.9-4.8-7.3-9-10.8-13.1c-0.5-0.6-1.8-1-2.6-0.9c-0.8,0.2-1.6,1.1-1.9,2
			c-0.4,1.3-0.4,2.7-0.6,4.3c-2.2-5.5-4.3-10.8-6.4-16.1c-0.7,0.1-1.3,0.3-2,0.4c-0.3,1.5-0.7,3-1,4.5c-0.4-0.1-0.9-0.3-1.3-0.4
			c0.7-1.8,1.6-5.3,2.1-5.2c4.7,0.7,8.5,2.8,9.2,8.5c4.5-1.4,6.5-0.3,8,4.2c0.8,2.4,5.1,3.8,8,5.3c5.8,2.9,6.7,5,4.1,11
			c-1.2,2.8-2.4,5-0.5,8.2c1,1.8,0.7,5.2-0.4,7.1c-2.8,5-3.4,9.5,1.4,14.2C504.2,114.8,500.6,114.2,496.8,113.7z"/>
		<path class="st0" d="M580,38.4c-4.2,1.2-8.5,2.3-12.8,3.5c-0.5-4.9,1.8-6.1,12.1-5.4C579.6,37.1,579.8,37.8,580,38.4z"/>
		<path class="st0" d="M351.8,96.1c-0.5,3.3-1.2,6.6-1.4,10c-0.2,3.5-0.1,6.9-0.9,10.5c-0.6-5.4-1.6-10.7-1.7-16.1
			c0-1.4,2.6-2.9,4.1-4.3C351.9,96.2,351.8,96.1,351.8,96.1z"/>
		<path class="st0" d="M384.8,251.4c-2.8,3.5-5.8,6.7-2.7,11.8c0.8,1.4-0.8,4.2-1.3,6.5c-0.7-3.2-1.1-5.9-2-8.5
			c-1.2-3.9,1.2-8,6.1-9.8C384.9,251.5,384.8,251.4,384.8,251.4z"/>
		<path class="st0" d="M515.4,272c0,5.8,0,11.3,0,16.7C514.5,283.3,511.4,277.8,515.4,272z"/>
		<path class="st0" d="M297.8,129c1.2,2,3.1,4,3.3,6.2c0.3,3.1-0.6,6.2-0.4,9.3c-1.1-5-2.2-10.1-3.3-15.1
			C297.5,129.3,297.8,129,297.8,129z"/>
		<path class="st0" d="M185.9,209.9c0,2.8,0,5.6,0,8.4c-0.2,0-0.4,0-0.6,0c-0.1-1.1-0.3-2.3-0.3-3.4c-0.1-3.4-0.9-5.6-5.1-5.8
			c-3.1-0.1-3.7-2.2-1.4-4.6c0,0-0.1-0.1-0.1-0.1c1,1,1.8,2.2,2.9,3c1.4,1,3.1,1.7,4.6,2.5L185.9,209.9z"/>
	</g>
</g>
</svg>
