<?xml version="1.0" encoding="utf-8"?>
<!-- Generator: Adobe Illustrator 26.2.1, SVG Export Plug-In . SVG Version: 6.00 Build 0)  -->
<svg version="1.1" id="Capa_1" xmlns="http://www.w3.org/2000/svg" xmlns:xlink="http://www.w3.org/1999/xlink" x="0px" y="0px"
	 viewBox="0 0 48.8 48.8" style="enable-background:new 0 0 48.8 48.8;" xml:space="preserve">
<style type="text/css">
	.st0{fill:#540111;}
</style>
<g>
	<path class="st0" d="M24.4,11.8c-7,0-12.6,5.7-12.6,12.6S17.4,37,24.4,37c7,0,12.6-5.7,12.6-12.6S31.4,11.8,24.4,11.8z M24.4,32.1
		c-4.3,0-7.7-3.5-7.7-7.7c0-4.3,3.5-7.7,7.7-7.7c4.3,0,7.7,3.5,7.7,7.7C32.1,28.7,28.7,32.1,24.4,32.1z"/>
	<path class="st0" d="M37,8.8c-1.7,0-3,1.4-3,3s1.4,3,3,3c1.7,0,3-1.4,3-3S38.7,8.8,37,8.8z"/>
	<path class="st0" d="M34.3,0H14.5C6.5,0,0,6.5,0,14.5v19.7c0,8,6.5,14.5,14.5,14.5h19.7c8,0,14.5-6.5,14.5-14.5V14.5
		C48.8,6.5,42.3,0,34.3,0z M43.9,34.3c0,5.3-4.3,9.6-9.6,9.6H14.5c-5.3,0-9.6-4.3-9.6-9.6V14.5c0-5.3,4.3-9.6,9.6-9.6h19.7
		c5.3,0,9.6,4.3,9.6,9.6V34.3z"/>
</g>
</svg>
