<?xml version="1.0" encoding="utf-8"?>
<!-- Generator: Adobe Illustrator 26.2.1, SVG Export Plug-In . SVG Version: 6.00 Build 0)  -->
<svg version="1.1" id="Capa_1" xmlns="http://www.w3.org/2000/svg" xmlns:xlink="http://www.w3.org/1999/xlink" x="0px" y="0px"
	 viewBox="0 0 48 48" style="enable-background:new 0 0 48 48;" xml:space="preserve">
<style type="text/css">
	.st0{fill:#383838;}
	.st1{fill:#E9E6E3;}
</style>
<rect class="st0" width="48" height="48"/>
<g>
	<path class="st1" d="M28.1,26.1l-5-11.9l-5,11.9l-0.7,1.8l-2,4.9c-0.2,0.6-0.4,1.3-0.4,1.8c0,1.3,1,1.8,3,1.8v0.8H9.5v-0.8
		c2.5-0.3,2.9-1.2,5.4-7.2l8.9-21.1h0.9l10.6,24.3c1.2,2.8,1.8,3.7,4.1,4v0.8h-11v-0.8c1.6,0,1.9-0.1,2.4-0.4c0.3-0.2,0.6-0.6,0.6-1
		c0-0.6-0.3-1.8-0.8-3L28.1,26.1z"/>
</g>
</svg>
